<svg xmlns="http://www.w3.org/2000/svg" width="178.998" height="100" viewBox="0 0 178.998 100"><defs><style>.a{fill:#aa9134;}.b,.c{stroke:#000;stroke-width:3px;font-family:Consolas;}.b{font-size:80px;}.c{font-size:60px;}</style></defs><g transform="translate(-98 -302)"><g transform="translate(0 21.473)"><circle class="a" cx="1.217" cy="1.217" r="1.217" transform="translate(98 294.404)"/><circle class="a" cx="1.217" cy="1.217" r="1.217" transform="translate(120.683 294.537)"/><circle class="a" cx="1.449" cy="1.449" r="1.449" transform="translate(109.109 289.746)"/><path class="a" d="M28.56,57.138,33.387,60.3a2.635,2.635,0,1,0,3.215-.97l2.635-6.25,2.635,6.25a2.635,2.635,0,1,0,3.2.975L49.9,57.143l-3.02,14H31.6Z" transform="translate(71.321 239.564)"/><path class="a" d="M33.414,327.32H47.62a1.347,1.347,0,0,1,1.174,1.469h0a1.347,1.347,0,0,1-1.174,1.469H33.414a1.347,1.347,0,0,1-1.174-1.469h0A1.347,1.347,0,0,1,33.414,327.32Z" transform="translate(70.041 -15.141)"/><path class="a" d="M33.152,327.32H44.185c.5,0,.912.658.912,1.469h0c0,.811-.408,1.469-.912,1.469H33.152c-.5,0-.912-.658-.912-1.469h0C32.24,327.978,32.648,327.32,33.152,327.32Z" transform="translate(71.885 -10.73)"/></g><g transform="translate(0 23)"><rect width="13" height="37" transform="translate(103.998 321)"/><text class="b" transform="translate(129.998 356)"><tspan x="0" y="0">S</tspan></text><text class="c" transform="translate(174.998 354)"><tspan x="0" y="0">ave</tspan></text></g></g></svg>