<?xml version="1.0" encoding="UTF-8"?>
<svg width="32px" height="32px" viewBox="0 0 32 32" version="1.1" xmlns="http://www.w3.org/2000/svg" xmlns:xlink="http://www.w3.org/1999/xlink">
    <!-- Generator: Sketch 63.1 (92452) - https://sketch.com -->
    <title>ic_eyeclose</title>
    <desc>Created with Sketch.</desc>
    <g id="ic_eyeclose" stroke="none" stroke-width="1" fill="none" fill-rule="evenodd">
        <path d="M31.788549,17.1960712 C31.1245459,18.3528767 29.5629386,20.781688 27.1277272,23.0024984 L24.8701166,20.7448879 C26.5661245,19.2232807 27.7933303,17.5496729 28.5229337,16.4072675 C27.0317267,14.1368569 22.5149055,8.2296292 15.6492734,8.40403002 C14.6892689,8.42803013 13.7884646,8.57843084 12.9308606,8.8056319 L10.4028488,6.27762005 C11.9580561,5.66321717 13.6716641,5.25361525 15.567673,5.20561503 C25.1277178,4.90641362 30.7677442,13.8248554 31.788549,15.6040638 C32.0701503,16.0968661 32.0701503,16.7032689 31.788549,17.1960712 L31.788549,17.1960712 Z M19.0684894,23.9945031 L21.5965012,26.522515 C20.042894,27.1369178 18.3276859,27.5465198 16.433277,27.59452 C16.3020764,27.59772 16.1708758,27.59932 16.0396752,27.59932 C6.65883121,27.59932 1.21880571,18.9512795 0.212400996,17.1960712 C-0.0708003319,16.7032689 -0.0708003319,16.0968661 0.212400996,15.6040638 C0.874804101,14.4472583 2.43641142,12.018447 4.87162284,9.79603654 L7.12923342,12.0552471 C5.43322547,13.5768543 4.20761972,15.2504621 3.4764163,16.3928675 C4.96762329,18.6632781 9.46364436,24.5561057 16.3516766,24.396105 C17.3116811,24.3721049 18.2124854,24.2217042 19.0684894,23.9945031 L19.0684894,23.9945031 Z M15.999675,18.7992787 C14.6764688,18.7992787 13.5996637,17.7240737 13.5996637,16.3992675 C13.5996637,16.3592673 13.6172638,16.3224671 13.6188638,16.2808669 L16.1196756,18.7816787 C16.0780754,18.7832787 16.0412752,18.7992787 15.999675,18.7992787 L15.999675,18.7992787 Z M4.3308203,2.46800219 C3.70681738,1.84399927 2.69401263,1.84399927 2.0684097,2.46800219 C1.44440677,3.09360513 1.44440677,4.10640987 2.0684097,4.7304128 L11.0780519,13.740055 C10.6348499,14.5528588 10.3996487,15.4568631 10.3996487,16.3992675 C10.3996487,19.487282 12.9132605,21.9992937 15.999675,21.9992937 C16.9436794,21.9992937 17.8476837,21.7640926 18.6604875,21.3224906 L27.6685297,30.3305328 C27.9821312,30.6441343 28.3901331,30.799335 28.799735,30.799335 C29.2093369,30.799335 29.6189388,30.6441343 29.9309403,30.3305328 C30.5565432,29.7065299 30.5565432,28.6937251 29.9309403,28.0681222 L4.3308203,2.46800219 Z" id="🎨-Icon-Сolor" fill="#6E6C6C" fill-rule="nonzero"></path>
    </g>
</svg>
