<svg xmlns="http://www.w3.org/2000/svg" width="32" height="32" viewBox="0 0 32 32"><defs><style>.a{fill:none;}.b{fill:#6e6c6c;}</style></defs><g transform="translate(-660 -600)"><rect class="a" width="32" height="32" transform="translate(660 600)"/><g transform="translate(662.89 608.265)"><path class="b" d="M30.992,29.326c-4.211-4.181-8.6-6.256-13.017-6.138-5.841.119-10.23,3.944-12.305,6.2a2.7,2.7,0,0,0,0,3.5c2.076,2.254,6.464,6.079,12.305,6.227h.3c4.329,0,8.629-2.076,12.721-6.168a2.654,2.654,0,0,0,0-3.617ZM18.361,37.332a6.2,6.2,0,1,1,6.2-6.2A6.213,6.213,0,0,1,18.361,37.332Zm0-10.319a4.122,4.122,0,1,0,4.122,4.122A4.113,4.113,0,0,0,18.361,27.014Zm0,6.79a2.676,2.676,0,0,1-2.669-2.669.593.593,0,1,1,1.186,0,1.487,1.487,0,0,0,1.483,1.483.593.593,0,0,1,0,1.186Z" transform="translate(-5.025 -23.184)"/></g></g></svg>