<?xml version="1.0" encoding="UTF-8"?>
<svg width="32px" height="32px" viewBox="0 0 32 32" version="1.1" xmlns="http://www.w3.org/2000/svg" xmlns:xlink="http://www.w3.org/1999/xlink">
    <!-- Generator: Sketch 63.1 (92452) - https://sketch.com -->
    <title>ic_eyeopen</title>
    <desc>Created with Sketch.</desc>
    <defs>
        <path d="M16.00028,18.6017654 C14.6770635,18.6017654 13.60025,17.524952 13.60025,16.2017354 C13.60025,14.8785189 14.6770635,13.8017054 16.00028,13.8017054 C17.3234965,13.8017054 18.40031,14.8785189 18.40031,16.2017354 C18.40031,17.524952 17.3234965,18.6017654 16.00028,18.6017654 M16.00028,10.6016654 C12.9122414,10.6016654 10.40021,13.1136968 10.40021,16.2017354 C10.40021,19.289774 12.9122414,21.8018054 16.00028,21.8018054 C19.0883186,21.8018054 21.60035,19.289774 21.60035,16.2017354 C21.60035,13.1136968 19.0883186,10.6016654 16.00028,10.6016654 M16.3518044,24.1979954 C9.46211828,24.3579974 4.9676621,18.4651237 3.47644346,16.1946954 C5.11806398,13.6266633 9.25251566,8.36899754 15.6493956,8.2057955 C22.5118814,8.03139332 27.0319379,13.9386672 28.5231565,16.2090955 C26.883136,18.7771276 22.7470843,24.0347934 16.3518044,24.1979954 M31.7887974,15.4058855 C30.7679846,13.6266633 25.1295141,4.70815178 15.5677946,5.00735552 C6.72288404,5.23135832 1.57881974,13.0234557 0.212402655,15.4058855 C-0.070800885,15.8986917 -0.070800885,16.5050992 0.212402655,16.9979054 C1.21881524,18.7531273 6.65888324,27.4012354 16.0398005,27.4012354 C16.1710021,27.4012354 16.3022038,27.3996354 16.4334054,27.3964354 C25.276716,27.1708326 30.4223803,19.3803352 31.7887974,16.9979054 C32.0704009,16.5050992 32.0704009,15.8986917 31.7887974,15.4058855" id="path-1"></path>
    </defs>
    <g id="ic_eyeopen" stroke="none" stroke-width="1" fill="none" fill-rule="evenodd">
        <mask id="mask-2" fill="white">
            <use xlink:href="#path-1"></use>
        </mask>
        <use id="🎨-Icon-Сolor" fill="#6E6C6C" fill-rule="nonzero" xlink:href="#path-1"></use>
    </g>
</svg>
