<svg xmlns="http://www.w3.org/2000/svg" width="16" height="15.562" viewBox="0 0 16 15.562"><defs><style>.a{fill:#3096f7;}</style></defs><g transform="translate(-2.5 -3.8)"><g transform="translate(2.5 3.8)"><path class="a" d="M15.384,3.8H5.616A3.12,3.12,0,0,0,2.5,6.916V12.76a3.12,3.12,0,0,0,3.116,3.116h.3v1.836a1.673,1.673,0,0,0,1.651,1.651,1.714,1.714,0,0,0,1.095-.421L12.1,15.876h3.284A3.12,3.12,0,0,0,18.5,12.76V6.933A3.123,3.123,0,0,0,15.384,3.8Zm1.92,8.943a1.919,1.919,0,0,1-1.92,1.92h-3.52a.6.6,0,0,0-.4.152L7.873,18.048a.4.4,0,0,1-.472.067.41.41,0,0,1-.269-.4V15.269a.6.6,0,0,0-.606-.606H5.616a1.919,1.919,0,0,1-1.92-1.92V6.916A1.919,1.919,0,0,1,5.616,5h9.768a1.919,1.919,0,0,1,1.92,1.92Z" transform="translate(-2.5 -3.8)"/><path class="a" d="M32.463,25.163H26.5l1.2-1.195a.6.6,0,0,0-.843-.842l-2.224,2.2a.589.589,0,0,0,0,.842l2.224,2.222a.6.6,0,1,0,.843-.842l-1.2-1.195h5.966a.6.6,0,0,0,.607-.606A.59.59,0,0,0,32.463,25.163Z" transform="translate(-20.756 -19.724)"/></g></g></svg>