<svg xmlns="http://www.w3.org/2000/svg" width="36" height="36" viewBox="0 0 36 36"><defs><style>.a{fill:none;}.b{fill:#2196f5;}.b,.c{stroke:#000;stroke-miterlimit:10;}.c{fill:#f7d14b;}</style></defs><g transform="translate(-10752 183)"><path class="a" d="M0,0H36V36H0Z" transform="translate(10752 -183)"/><g transform="translate(10757.557 -180.796)"><path class="b" d="M19.306,15.711a.554.554,0,0,0-.716-.41l-1.179.393-.547-1.642a.566.566,0,0,0-.716-.358l-.131.044L14.169,8.194a2.3,2.3,0,0,0,.874-2.616.639.639,0,0,0-.609-.437,2.44,2.44,0,0,1-1.991,2.23L11,7.637a2.283,2.283,0,0,0,1.958.959L14.8,14.142l-.131.044a.566.566,0,0,0-.358.716l.547,1.642L14.7,16.6a1.489,1.489,0,0,0-.285-.407L9.381,11.106a1.5,1.5,0,0,0-.712-.4s-5.7-1.145-6.2-1.24l4.427-.2h0l.165-.934a2.382,2.382,0,0,1-1.985-.977l-2.5-4.35L6.113,6.76a1.25,1.25,0,0,0,1.121.358h0l4.992-.923a1.246,1.246,0,0,0-.454-2.45L7.535,4.53l-3.3-3.4L7.93,3.375c.04-.181.014-.042.145-.786A1.744,1.744,0,0,0,6.662.568L3.6.027A1.744,1.744,0,0,0,1.579,1.441L.012,10.311h0a1.5,1.5,0,0,0,1.131,1.655l6.41,1.545,4.732,4.783a1.49,1.49,0,0,0,1.59.347,10.686,10.686,0,0,0,1.1,1.444,4.228,4.228,0,0,1,2.426-1.2,4.921,4.921,0,0,1,2.06-1.956A8.407,8.407,0,0,0,19.306,15.711Z" transform="translate(0 7.424)"/><path class="c" d="M12.8,5.762a2.639,2.639,0,0,0-2.469-1.911A3.65,3.65,0,0,0,3.233,2.459,2.963,2.963,0,0,0,.069,6.034a.561.561,0,0,0,.549.442H12.256A.562.562,0,0,0,12.8,5.762Z" transform="translate(15.005 25.106)"/><path class="b" d="M4.578,3.623,4.216.785,1.1,0l.469,3.684L.064,8.666a1.495,1.495,0,1,0,2.861.866l1.6-5.287A1.5,1.5,0,0,0,4.578,3.623Z" transform="translate(2.049 20.998)"/><path class="b" d="M9.906,1.278c-.077-.222-.438-.327-1-.327a9.2,9.2,0,0,0-1.762.217A2.779,2.779,0,0,0,2.109,2.921C.724,3.62-.126,4.315.015,4.721c.077.222.438.327,1,.327a14.9,14.9,0,0,0,4.336-.938C8.079,3.16,10.12,1.892,9.906,1.278Z" transform="translate(0.341 0)"/><path class="b" d="M4.864.474A2.566,2.566,0,0,0,4.824,0a21.961,21.961,0,0,1-2.3.945A21.669,21.669,0,0,1,0,1.662a2.581,2.581,0,0,0,4.747-.437Z" transform="translate(3.445 3.963)"/></g></g></svg>