<svg xmlns="http://www.w3.org/2000/svg" width="16" height="15.134" viewBox="0 0 16 15.134"><defs><style>.a{fill:#3096f7;}</style></defs><g transform="translate(-31 -9.999)"><g transform="translate(31 9.999)"><path class="a" d="M31,17.565a7.557,7.557,0,0,1,14.176-3.654l.124-.274a.89.89,0,1,1,1.62.735L45.912,16.6a.888.888,0,0,1-1.157.452l-2.106-.89a.89.89,0,0,1,.692-1.64l.181.077a5.782,5.782,0,1,0,.608,4.533.89.89,0,1,1,1.713.48A7.563,7.563,0,0,1,31,17.565Z" transform="translate(-31 -9.999)"/></g></g></svg>