<svg xmlns="http://www.w3.org/2000/svg" width="36" height="36" viewBox="0 0 36 36"><defs><style>.a{fill:none;}.b,.d{fill:#2196f5;}.b,.c,.d{stroke:#000;}.c{fill:#f7d14b;}.c,.d{stroke-miterlimit:10;}</style></defs><g transform="translate(-10799 183)"><rect class="a" width="36" height="36" transform="translate(10799 -183)"/><g transform="translate(10805 -181.312)"><g transform="translate(0)"><path class="b" d="M3,0,0,1.344l2.548,3.8-.471,6.832a1.634,1.634,0,0,0,1.6,1.771,1.626,1.626,0,0,0,1.6-1.537l.511-7.412a1.692,1.692,0,0,0-.281-1.059Z" transform="translate(7.296 18.881)"/><path class="c" d="M5.81,0,.439,2.406A.761.761,0,0,0,.06,3.4a.721.721,0,0,0,.959.39L7.13,1.048Z" transform="translate(4.587 16.335)"/><path class="b" d="M3.346.039A2.9,2.9,0,0,0,.037,2.5,2.966,2.966,0,0,0,2.426,5.914,2.9,2.9,0,0,0,5.734,3.451,2.966,2.966,0,0,0,3.346.039Z" transform="translate(6.318 0)"/><path class="d" d="M15.227,9.136l-4.142-3.29L9.044,2.32l2.4,2.633,1.4,1.114,2.663.6L19.183,5.02a1.267,1.267,0,0,0-.661-.386L13.3,3.462,11.482,2.5A1.99,1.99,0,0,0,9.846.6L6.414.026A1.957,1.957,0,0,0,4.179,1.69l-1.46,9.265a9.061,9.061,0,0,0-.049,2.463l.51,4.356-3,5.912a1.68,1.68,0,0,0,.679,2.233,1.581,1.581,0,0,0,2.165-.7l3.228-6.369a1.7,1.7,0,0,0,.17-.97l-.431-3.59-.083.037a1.478,1.478,0,0,1-1.967-.8A1.563,1.563,0,0,1,4.72,11.5L9.7,9.266l-.93-.738A1.339,1.339,0,0,1,8.231,7.9l-1.39-4.22L9.007,7.419a1.311,1.311,0,0,0,.319.37l4.335,3.443a1.258,1.258,0,0,0,1.8-.241A1.351,1.351,0,0,0,15.227,9.136Z" transform="translate(0 6.519)"/><path class="c" d="M9.2.453A.721.721,0,0,0,8.24.062L0,3.754l.8.634a2.218,2.218,0,0,1,.43.455l7.592-3.4A.761.761,0,0,0,9.2.453Z" transform="translate(14.981 10.528)"/></g></g></g></svg>