<svg xmlns="http://www.w3.org/2000/svg" width="36" height="36" viewBox="0 0 36 36"><defs><style>.a{fill:none;}.b{fill:#2196f5;}.b,.c{stroke:#000;stroke-miterlimit:10;}.c{fill:#f7d14b;}</style></defs><g transform="translate(-10859 183)"><g transform="translate(60)"><rect class="a" width="36" height="36" transform="translate(10799 -183)"/></g><g transform="translate(10865.972 -181)"><g transform="translate(0.028 0)"><path class="b" d="M19.838,24.436l.016-13.575.422-.143a1.284,1.284,0,0,0-.419-2.5L19.866.644a.643.643,0,0,0-1.287,0L18.57,8.584l-3,1.013c-.25-.706-.547-1.546-.7-1.983A3.5,3.5,0,0,0,12.668,5.1l-1.123,3.17c.384,3.137.105,1.331,1.3,8.3a.63.63,0,0,1-.621.737H7.138a.631.631,0,0,1-.621-.737c1.2-6.963.921-5.178,1.293-8.222L6.664,5.112a3.518,3.518,0,0,0-2.176,2.5C3.565,10.3,1.468,16.038,1.447,16.1a1.284,1.284,0,0,0,.563,1.551v1.8A1.888,1.888,0,0,0,0,21.33V23.8a.489.489,0,0,0,.489.489H4.816a.489.489,0,0,0,.489-.489V21.33A1.886,1.886,0,0,0,3.3,19.449v-1.8a1.279,1.279,0,0,0,.563-.67c.018-.049,1.524-4.176,2.552-7.088-.067.544-1.7,8.942-1.7,8.942A2.826,2.826,0,0,1,6.042,20.31h.225v9.315a1.541,1.541,0,1,0,3.082,0V20.31h.665v9.315a1.541,1.541,0,1,0,3.082,0V20.31h.98a.714.714,0,0,0,.7-.85c-.14-.72-1.755-9-1.825-9.57.3.851.6,1.7.625,1.76a1.284,1.284,0,0,0,1.621.786L18.566,11.3l-.015,13.138a2.5,2.5,0,0,0-1.861,2.416v.191l5,.006v-.191A2.5,2.5,0,0,0,19.838,24.436Z" transform="translate(0 1.17)"/><path class="c" d="M0,0,0,2.24c0,.487,1.119.883,2.5.885S5,2.733,5,2.246l0-2.24Z" transform="translate(16.686 29.212)"/><circle class="b" cx="2.661" cy="2.661" r="2.661" transform="translate(7.02)"/><path class="b" d="M0,0,1.115,3.145H2.841L3.956,0Z" transform="translate(7.686 6.171)"/></g></g></g></svg>