<?xml version="1.0" standalone="no"?>
<!DOCTYPE svg PUBLIC "-//W3C//DTD SVG 20010904//EN"
 "http://www.w3.org/TR/2001/REC-SVG-20010904/DTD/svg10.dtd">
<svg version="1.0" xmlns="http://www.w3.org/2000/svg"
 width="1024.000000pt" height="1024.000000pt" viewBox="0 0 1024.000000 1024.000000"
 preserveAspectRatio="xMidYMid meet">
<metadata>
Created by potrace 1.14, written by Peter Selinger 2001-2017
</metadata>
<g transform="translate(0.000000,1024.000000) scale(0.100000,-0.100000)"
fill="#000000" stroke="none">
<path d="M0 5120 l0 -5120 5120 0 5120 0 0 5120 0 5120 -5120 0 -5120 0 0
-5120z m6433 2598 l446 -403 0 -1058 1 -1058 28 19 c52 37 111 62 146 62 29 0
49 -13 128 -83 257 -230 475 -515 634 -831 90 -178 96 -209 48 -256 -58 -58
-500 -380 -533 -390 -57 -16 -80 3 -116 95 -130 331 -405 724 -625 895 -114
88 -130 106 -130 146 0 46 22 67 194 189 82 58 141 105 132 105 -15 0 -16 84
-16 1040 l0 1040 -440 0 -440 0 0 390 0 390 -1210 0 -1210 0 0 -1423 0 -1424
203 -110 c111 -61 214 -122 229 -137 65 -65 47 -128 -80 -289 -53 -67 -109
-138 -123 -157 -154 -208 -438 -756 -518 -1001 -13 -41 -33 -77 -52 -95 -27
-26 -37 -29 -97 -29 -60 0 -81 6 -212 64 -300 132 -421 205 -454 276 -41 86
-4 218 157 562 175 373 403 743 566 916 91 97 140 114 230 82 l41 -14 0 1400
c0 1546 -4 1459 62 1478 20 5 526 10 1299 10 l1267 1 445 -402z m-39 -751 c20
-29 10 -66 -21 -78 -14 -5 -527 -9 -1256 -9 -1099 0 -1235 2 -1255 16 -24 17
-30 62 -10 82 9 9 305 12 1270 12 l1258 0 14 -23z m-21 -306 c31 -12 41 -49
21 -78 l-14 -23 -1258 0 c-965 0 -1261 3 -1270 12 -20 20 -14 65 10 82 20 14
156 16 1255 16 729 0 1242 -4 1256 -9z m2 -327 c27 -11 38 -53 20 -80 l-15
-24 -1258 0 c-965 0 -1261 3 -1270 12 -17 17 -15 64 4 82 14 14 142 16 1259
16 684 0 1251 -3 1260 -6z m-1326 -1603 l83 -28 72 31 71 31 180 -1 c99 0 245
-6 325 -13 358 -29 607 -31 670 -7 21 9 184 -145 291 -273 107 -126 243 -332
318 -480 34 -66 61 -123 61 -128 0 -5 -13 -17 -30 -26 -16 -10 -102 -88 -190
-172 -151 -145 -242 -215 -282 -215 -23 0 -23 1 10 -62 23 -46 27 -65 27 -138
0 -69 -5 -93 -23 -127 -46 -88 -115 -136 -222 -155 l-60 -10 0 -67 c0 -128
-82 -243 -196 -277 -31 -9 -71 -14 -89 -12 -30 3 -34 0 -61 -52 -35 -67 -111
-145 -162 -167 -22 -10 -65 -16 -109 -16 l-71 1 -7 -36 c-16 -84 -81 -162
-152 -181 -90 -25 -212 -6 -331 50 l-64 31 -26 -25 c-53 -48 -110 -63 -193
-47 -63 12 -163 57 -214 96 -41 31 -85 100 -85 134 0 18 -4 21 -22 16 -59 -18
-185 -18 -244 -1 -79 22 -145 89 -165 164 l-13 51 -85 0 c-102 0 -150 12 -191
47 -43 36 -63 79 -66 143 l-3 55 -43 11 c-102 26 -149 74 -156 158 l-4 52
-126 89 c-172 123 -182 133 -182 187 0 87 74 295 180 503 136 269 423 719 473
743 24 12 38 10 116 -13 99 -29 208 -35 281 -15 25 7 117 48 205 91 101 50
180 83 215 88 82 14 194 3 289 -28z"/>
<path d="M6000 7652 l0 -312 342 0 343 0 -25 24 c-14 13 -149 135 -300 271
-151 137 -294 266 -317 289 l-43 40 0 -312z"/>
<path d="M3215 5176 c-59 -26 -232 -247 -368 -470 -169 -279 -412 -807 -424
-921 -5 -47 -3 -55 25 -86 17 -19 77 -60 134 -91 142 -78 383 -187 428 -194
56 -9 79 20 135 166 145 376 435 885 634 1113 81 93 101 147 64 179 -10 8 -88
52 -173 98 -85 46 -180 99 -210 117 -30 18 -65 33 -77 33 -13 0 -23 6 -23 14
0 7 -22 23 -49 35 -58 24 -57 24 -96 7z"/>
<path d="M4740 4680 c-52 -13 -117 -42 -206 -93 -135 -76 -184 -90 -304 -91
-72 0 -124 6 -166 18 -97 28 -98 27 -192 -114 -299 -451 -502 -864 -502 -1022
0 -36 5 -40 147 -144 123 -89 156 -109 197 -115 70 -12 112 -44 147 -115 l30
-61 82 -6 c45 -3 104 -14 131 -24 55 -20 116 -81 116 -116 0 -21 3 -22 112
-22 128 0 175 -11 245 -58 49 -33 103 -117 103 -161 0 -20 4 -21 114 -18 218
7 326 -55 326 -187 l0 -40 83 -41 c211 -103 358 -67 384 95 5 31 3 35 -38 56
-64 32 -146 90 -208 146 -49 44 -53 51 -42 71 6 12 18 22 26 22 8 0 54 -32
102 -71 112 -90 213 -140 299 -147 55 -4 68 -1 109 23 31 18 59 47 86 87 21
34 39 64 39 68 0 4 -24 20 -52 35 -114 62 -490 341 -502 372 -7 17 10 53 26
53 6 0 68 -42 137 -94 170 -126 328 -238 384 -270 80 -48 190 -47 247 1 62 52
99 178 69 236 -8 14 -68 63 -134 108 -148 102 -580 422 -589 438 -12 18 4 51
25 51 10 0 160 -104 333 -230 173 -127 337 -242 365 -255 92 -47 202 -27 268
48 69 79 60 228 -19 305 -31 31 -436 300 -672 447 -251 156 -486 290 -553 315
-139 52 -255 -1 -443 -204 -126 -134 -251 -155 -335 -54 -24 29 -27 38 -22 83
3 28 28 112 56 185 29 74 59 162 67 194 22 84 48 131 86 154 19 12 82 35 141
52 59 17 126 39 149 49 l43 19 -30 12 c-36 16 -216 22 -265 10z"/>
</g>
</svg>
