<?xml version="1.0" standalone="no"?>
<!DOCTYPE svg PUBLIC "-//W3C//DTD SVG 20010904//EN"
 "http://www.w3.org/TR/2001/REC-SVG-20010904/DTD/svg10.dtd">
<svg version="1.0" xmlns="http://www.w3.org/2000/svg"
 width="1024.000000pt" height="1024.000000pt" viewBox="0 0 1024.000000 1024.000000"
 preserveAspectRatio="xMidYMid meet">
<metadata>
Created by potrace 1.14, written by Peter Selinger 2001-2017
</metadata>
<g transform="translate(0.000000,1024.000000) scale(0.100000,-0.100000)"
fill="#000000" stroke="none">
<path d="M0 5120 l0 -5120 5120 0 5120 0 0 5120 0 5120 -5120 0 -5120 0 0
-5120z m5896 2415 c3 -8 14 -17 25 -20 10 -4 19 -13 19 -21 0 -8 7 -14 15 -14
8 0 15 -7 15 -15 0 -8 6 -15 13 -15 8 0 27 -16 42 -35 16 -19 42 -37 57 -40
15 -4 28 -13 28 -20 0 -8 9 -17 20 -20 11 -3 20 -11 20 -16 0 -12 32 -44 53
-52 9 -3 17 -13 17 -22 0 -8 9 -15 20 -15 11 0 20 -7 20 -15 0 -8 7 -15 15
-15 8 0 15 -9 15 -20 0 -11 6 -20 14 -20 8 0 40 -25 71 -55 31 -30 60 -55 66
-55 5 0 32 -22 59 -50 27 -27 54 -50 59 -50 5 0 12 -9 16 -19 3 -11 12 -22 20
-25 13 -5 15 -117 15 -840 0 -459 4 -837 8 -840 7 -4 46 3 98 19 15 5 30 -2
53 -24 18 -17 37 -31 41 -31 4 0 27 -22 51 -50 24 -27 49 -50 56 -50 7 0 13
-6 13 -13 0 -6 16 -27 35 -44 19 -18 35 -37 35 -43 0 -5 7 -10 15 -10 8 0 15
-7 15 -15 0 -7 6 -18 14 -22 7 -4 19 -19 26 -32 13 -25 22 -38 50 -69 9 -9 22
-29 29 -44 8 -16 18 -28 23 -28 4 0 8 -9 8 -20 0 -11 7 -20 15 -20 8 0 15 -7
15 -16 0 -9 9 -27 20 -41 11 -14 20 -31 20 -38 0 -7 7 -15 15 -19 8 -3 15 -16
15 -28 0 -13 9 -29 20 -36 11 -7 20 -23 20 -37 0 -14 7 -28 15 -31 9 -4 15
-19 15 -39 0 -18 9 -44 20 -58 16 -20 18 -31 10 -51 -5 -14 -14 -26 -20 -26
-5 0 -10 -5 -10 -11 0 -16 -109 -99 -130 -99 -6 0 -10 -7 -10 -15 0 -8 -7 -15
-15 -15 -8 0 -24 -8 -35 -17 -11 -10 -29 -26 -40 -35 -11 -10 -27 -18 -35 -18
-8 0 -15 -6 -15 -13 0 -7 -12 -18 -27 -24 -16 -7 -35 -16 -43 -21 -49 -29 -58
-31 -84 -19 -14 7 -26 19 -26 28 0 9 -7 19 -15 23 -8 3 -15 12 -15 20 0 19
-51 116 -61 116 -4 0 -10 14 -14 31 -4 17 -13 33 -21 36 -8 3 -14 15 -14 28 0
12 -7 28 -15 35 -8 7 -15 19 -15 26 0 8 -5 14 -11 14 -5 0 -17 16 -25 35 -8
19 -18 35 -22 35 -4 0 -13 12 -19 28 -16 37 -35 65 -50 75 -7 4 -13 15 -13 22
0 8 -7 15 -15 15 -8 0 -22 16 -31 35 -9 19 -20 35 -25 35 -5 0 -9 5 -9 11 0
14 -47 59 -61 59 -5 0 -9 7 -9 15 0 9 -7 18 -17 22 -9 3 -32 21 -52 39 -81 74
-83 77 -77 114 3 20 15 43 28 52 13 10 30 25 39 33 9 8 20 15 26 15 6 0 13 7
17 15 3 8 12 15 20 15 7 0 16 7 20 15 3 8 12 15 21 15 9 0 32 17 50 38 l35 37
0 827 0 827 -22 21 c-21 20 -32 20 -345 20 -178 -1 -328 2 -333 5 -6 4 -10
120 -10 303 0 163 -4 303 -8 310 -7 10 -215 12 -1008 10 l-999 -3 -3 -1177
c-2 -1173 -2 -1178 18 -1178 11 0 29 -9 40 -20 11 -11 27 -20 35 -20 8 0 15
-4 15 -10 0 -5 12 -13 28 -16 15 -4 35 -15 45 -25 10 -11 27 -19 38 -19 11 0
22 -7 25 -15 4 -8 14 -15 23 -15 33 0 51 -37 51 -105 0 -52 -3 -65 -15 -65 -9
0 -20 -11 -25 -25 -5 -14 -14 -25 -20 -25 -5 0 -10 -7 -10 -15 0 -8 -9 -24
-20 -35 -11 -11 -20 -27 -20 -35 0 -8 -7 -15 -15 -15 -8 0 -15 -9 -15 -20 0
-11 -9 -28 -20 -37 -11 -10 -20 -25 -20 -35 0 -10 -6 -18 -14 -18 -7 0 -16
-13 -19 -30 -4 -18 -13 -30 -22 -30 -8 0 -15 -9 -15 -20 0 -11 -7 -20 -15 -20
-8 0 -17 -14 -21 -35 -3 -20 -12 -35 -20 -35 -8 0 -14 -6 -14 -13 0 -8 -9 -24
-20 -37 -11 -13 -20 -31 -20 -42 0 -10 -6 -18 -14 -18 -8 0 -17 -14 -21 -30
-9 -39 -25 -39 -25 0 0 20 5 30 15 30 10 0 15 10 15 30 0 19 7 33 20 40 11 6
20 19 20 29 0 10 7 24 15 31 8 7 15 21 15 31 0 11 7 19 16 19 8 0 20 14 25 30
6 16 15 30 20 30 5 0 9 9 9 21 0 12 8 23 20 26 13 3 20 14 20 29 0 13 9 28 20
34 11 6 20 17 20 25 0 8 5 15 11 15 5 0 15 14 20 30 6 17 15 30 20 30 5 0 14
11 19 25 5 14 14 25 20 25 5 0 10 6 10 13 0 7 9 20 20 30 15 13 20 29 20 67 0
45 -3 51 -30 65 -16 9 -30 20 -30 25 0 6 -9 10 -20 10 -11 0 -23 7 -26 15 -3
8 -21 17 -40 21 -19 3 -34 12 -34 19 0 7 -15 16 -34 19 -19 4 -37 13 -40 21
-3 8 -14 15 -25 15 -11 0 -26 7 -35 15 -8 8 -22 15 -31 15 -8 0 -18 6 -21 14
-3 8 -18 18 -34 21 -16 3 -31 13 -34 21 -4 9 -21 14 -55 14 -59 0 -81 -7 -81
-26 0 -7 -11 -21 -25 -30 -14 -9 -25 -23 -25 -30 0 -8 -4 -14 -10 -14 -5 0
-10 -7 -10 -16 0 -9 -9 -18 -20 -21 -11 -3 -20 -12 -20 -19 0 -8 -6 -17 -14
-20 -8 -3 -18 -19 -21 -35 -4 -16 -13 -29 -21 -29 -8 0 -14 -9 -14 -20 0 -11
-7 -20 -15 -20 -8 0 -15 -6 -15 -13 0 -7 -9 -23 -20 -35 -11 -12 -20 -28 -20
-37 0 -8 -4 -15 -10 -15 -5 0 -17 -16 -26 -35 -9 -19 -20 -32 -25 -29 -16 10
-9 49 11 67 11 9 20 26 20 37 0 11 7 20 15 20 8 0 15 8 15 18 0 10 8 25 18 33
30 28 52 59 52 74 0 8 7 15 15 15 9 0 19 8 22 17 4 9 23 34 42 54 50 53 71 81
71 96 0 7 7 13 15 13 8 0 15 6 15 14 0 31 132 30 144 -1 6 -16 45 -9 58 11 4
6 8 531 8 1167 0 636 3 1159 7 1162 3 4 487 7 1075 7 928 0 1069 -2 1074 -15z
m293 -910 c6 -6 8 -20 5 -33 l-6 -22 -1014 0 c-1081 0 -1014 -3 -1018 43 -1 8
24 14 79 17 160 10 1944 5 1954 -5z m-1 -270 c27 -9 28 -25 1 -48 -19 -17 -80
-18 -1014 -17 -928 0 -996 1 -1015 17 -28 24 -25 39 11 49 38 11 1985 10 2017
-1z m-23 -254 c11 -1 25 -12 32 -26 10 -22 8 -27 -7 -35 -23 -12 -2034 -9
-2046 3 -14 13 18 56 45 59 23 3 1924 2 1976 -1z m-1207 -1275 c15 -7 51 -16
80 -20 29 -4 64 -12 78 -18 20 -10 27 -9 34 3 8 12 71 14 408 14 358 -1 400
-3 422 -18 32 -23 185 -24 210 -2 16 15 60 10 60 -6 0 -5 9 -9 20 -9 12 0 20
-7 20 -16 0 -9 9 -18 20 -21 11 -3 20 -11 20 -18 0 -7 10 -15 23 -19 12 -3 38
-25 56 -50 19 -25 40 -47 47 -50 8 -3 14 -12 14 -21 0 -8 6 -15 14 -15 8 0 17
-9 21 -19 3 -11 12 -22 20 -25 8 -3 15 -10 15 -16 0 -5 9 -19 20 -30 11 -11
20 -27 20 -35 0 -8 4 -15 9 -15 11 0 21 -17 65 -106 15 -33 32 -66 37 -74 65
-113 75 -164 36 -174 -13 -3 -47 -28 -76 -56 -29 -27 -54 -50 -56 -50 -10 0
-55 -48 -55 -59 0 -6 -7 -11 -15 -11 -8 0 -19 -9 -25 -20 -6 -11 -17 -20 -24
-20 -7 0 -21 -9 -31 -20 -10 -11 -24 -20 -30 -20 -7 0 -15 -7 -19 -15 -3 -8
-12 -15 -21 -15 -12 0 -15 -12 -15 -55 0 -42 3 -55 15 -55 12 0 15 -14 15 -66
0 -45 -5 -70 -15 -80 -8 -9 -15 -25 -15 -36 0 -21 -36 -57 -57 -58 -7 0 -13
-7 -13 -15 0 -8 -14 -17 -35 -21 -19 -3 -35 -10 -35 -15 0 -4 -15 -11 -34 -14
-32 -6 -34 -9 -40 -58 -3 -29 -10 -53 -16 -55 -5 -2 -10 -15 -10 -29 0 -24
-40 -73 -60 -73 -5 0 -14 -9 -20 -20 -6 -11 -17 -20 -25 -20 -8 0 -15 -7 -15
-15 0 -10 -16 -15 -62 -17 -61 -3 -63 -4 -72 -35 -5 -18 -15 -33 -22 -33 -8 0
-14 -9 -14 -20 0 -11 -5 -20 -11 -20 -6 0 -25 -16 -43 -35 -32 -34 -36 -35
-109 -35 -67 0 -76 -2 -82 -20 -3 -11 -15 -25 -26 -30 -11 -6 -19 -21 -19 -35
0 -14 -9 -30 -20 -37 -11 -7 -20 -18 -20 -25 0 -6 -8 -14 -19 -18 -10 -3 -29
-15 -42 -26 -20 -17 -34 -20 -78 -16 -30 2 -57 9 -59 15 -2 6 -19 14 -38 18
-19 3 -34 12 -34 20 0 26 -136 23 -156 -4 -18 -24 -169 -23 -204 1 -14 9 -32
17 -42 17 -28 0 -96 71 -100 105 l-3 30 -101 5 c-56 3 -107 10 -115 16 -8 6
-31 14 -51 18 -22 4 -38 13 -38 20 0 8 -9 16 -20 19 -11 3 -20 12 -20 21 0 9
-7 16 -15 16 -8 0 -17 14 -21 35 -6 34 -8 35 -49 35 -24 0 -48 6 -54 14 -6 7
-33 16 -60 20 -29 4 -51 12 -55 21 -3 8 -12 15 -21 15 -8 0 -15 6 -15 14 0 8
-7 16 -15 20 -11 4 -15 20 -15 58 0 58 -10 70 -67 82 -17 4 -34 14 -37 22 -3
8 -11 14 -18 14 -18 0 -40 53 -32 75 5 11 1 21 -9 27 -10 5 -17 16 -17 23 0 8
-7 15 -15 15 -7 0 -18 7 -23 16 -8 15 -35 33 -79 53 -13 6 -23 15 -23 20 0 5
-12 12 -27 16 -47 11 -73 45 -73 96 0 25 7 54 15 65 8 10 15 31 15 45 0 15 7
32 15 39 8 7 17 28 21 49 4 20 12 43 19 51 6 8 15 23 18 33 11 29 27 19 27
-17 0 -21 -6 -36 -15 -40 -9 -3 -15 -18 -15 -35 0 -17 -7 -34 -15 -39 -9 -4
-18 -26 -21 -48 -3 -21 -12 -53 -20 -71 -8 -17 -14 -33 -14 -36 0 -11 48 -57
59 -57 6 0 14 -6 17 -14 3 -8 19 -19 35 -25 16 -5 29 -15 29 -20 0 -6 7 -11
15 -11 8 0 15 -7 15 -15 0 -8 6 -15 13 -15 8 0 22 -9 32 -20 10 -11 25 -20 34
-20 24 0 135 -47 139 -59 2 -6 10 -11 17 -11 7 0 16 -15 19 -33 7 -38 30 -50
126 -68 36 -6 72 -18 81 -25 8 -8 21 -14 28 -14 6 0 14 -7 17 -15 4 -8 12 -15
20 -15 8 0 14 -9 14 -20 0 -11 5 -20 11 -20 7 0 17 -8 24 -17 11 -15 16 -16
38 -4 14 8 36 11 49 8 13 -3 46 -11 73 -18 28 -6 57 -17 66 -25 8 -8 23 -14
33 -14 9 0 19 -7 22 -15 4 -8 12 -15 20 -15 8 0 14 -9 14 -19 0 -10 6 -21 14
-24 8 -3 16 -18 18 -34 l3 -28 112 -5 c87 -4 115 -9 130 -22 11 -10 32 -18 46
-18 18 0 27 -5 27 -16 0 -9 9 -18 20 -21 15 -4 20 -14 20 -43 0 -45 35 -88 80
-96 16 -4 30 -13 30 -20 0 -9 11 -14 29 -14 16 0 36 -7 45 -15 19 -19 105 -19
130 0 11 8 26 15 34 15 18 0 42 25 42 43 0 8 6 30 14 48 13 30 12 35 -7 61
-11 15 -26 28 -33 28 -6 0 -14 7 -18 15 -3 8 -14 15 -25 15 -11 0 -25 9 -31
20 -6 11 -17 20 -25 20 -16 0 -40 38 -31 48 3 3 6 0 6 -6 0 -7 15 -12 35 -12
22 0 38 -6 41 -15 4 -8 14 -15 24 -15 9 0 25 -9 35 -20 10 -11 26 -20 37 -20
10 0 18 -7 18 -15 0 -26 161 -25 187 1 8 8 22 14 32 14 10 0 22 13 30 35 7 19
17 35 22 35 5 0 9 11 9 24 0 27 -24 56 -45 56 -7 0 -15 7 -19 15 -3 8 -10 15
-16 15 -5 0 -18 8 -29 18 -32 30 -65 52 -76 52 -6 0 -18 8 -27 18 -29 30 -51
47 -80 59 -15 7 -28 17 -28 23 0 5 -7 10 -15 10 -7 0 -18 6 -22 13 -4 8 -16
16 -25 20 -10 3 -18 11 -18 17 0 16 47 12 54 -5 3 -8 17 -15 31 -15 16 0 25
-6 25 -15 0 -8 6 -15 14 -15 7 0 25 -9 39 -20 14 -11 32 -20 41 -20 9 0 16 -7
16 -15 0 -8 6 -15 14 -15 7 0 19 -7 26 -15 7 -9 35 -28 61 -43 27 -15 49 -33
49 -39 0 -7 9 -13 19 -13 11 0 26 -7 35 -15 19 -19 105 -19 130 0 11 8 28 15
38 15 10 0 18 7 18 15 0 8 8 19 19 24 39 21 39 198 0 208 -10 3 -19 12 -19 19
0 8 -9 14 -20 14 -11 0 -29 9 -40 20 -11 11 -24 20 -30 20 -5 0 -10 7 -10 15
0 8 -8 15 -18 15 -10 0 -25 9 -35 20 -9 11 -26 20 -37 20 -11 0 -20 7 -20 15
0 8 -7 15 -15 15 -9 0 -18 6 -21 14 -3 8 -18 18 -34 21 -16 3 -31 13 -34 21
-3 8 -12 14 -21 14 -8 0 -15 6 -15 14 0 8 -14 17 -31 21 -17 4 -33 13 -36 21
-3 8 -10 14 -15 14 -15 0 -68 53 -62 62 9 14 30 9 54 -12 13 -11 29 -20 37
-20 7 0 13 -7 13 -15 0 -8 7 -15 15 -15 9 0 18 -7 21 -15 3 -8 21 -17 40 -21
19 -3 34 -12 34 -20 0 -8 7 -14 15 -14 9 0 18 -6 21 -14 3 -8 19 -19 35 -25
16 -5 29 -15 29 -20 0 -6 9 -11 20 -11 11 0 20 -6 20 -13 0 -7 16 -19 35 -26
19 -7 35 -17 35 -22 0 -5 7 -9 15 -9 9 0 18 -7 21 -15 4 -8 12 -15 19 -15 6 0
20 -8 29 -19 22 -24 83 -33 168 -25 48 5 68 11 68 21 0 7 6 16 14 19 8 3 18
19 21 36 4 16 13 32 21 35 20 7 19 107 -1 127 -8 8 -15 18 -15 23 -1 13 -48
63 -60 63 -5 0 -10 7 -10 15 0 8 -7 15 -15 15 -9 0 -18 7 -21 15 -4 8 -12 15
-20 15 -7 0 -18 8 -23 19 -6 10 -22 22 -36 25 -14 4 -25 13 -25 21 0 8 -9 15
-20 15 -11 0 -20 4 -20 10 0 5 -16 16 -35 24 -19 8 -35 20 -35 25 0 6 -9 11
-20 11 -11 0 -20 6 -20 13 0 6 -10 17 -23 23 -66 33 -87 46 -87 54 0 5 -13 11
-30 15 -16 4 -33 12 -37 18 -5 7 -19 18 -33 25 -38 18 -64 36 -72 48 -4 7 -20
15 -35 19 -15 3 -30 10 -33 14 -9 13 -81 51 -96 51 -8 0 -14 6 -14 14 0 8 -14
17 -31 21 -17 4 -33 13 -36 21 -3 8 -13 14 -23 14 -9 0 -28 8 -41 18 -64 46
-85 52 -188 52 -78 0 -103 -3 -107 -14 -3 -8 -16 -17 -30 -20 -24 -6 -104 -78
-104 -94 0 -11 -79 -82 -90 -82 -5 0 -13 -8 -18 -17 -12 -20 -113 -30 -153
-15 -15 6 -34 27 -44 48 -19 41 -20 38 36 146 10 20 19 44 19 53 0 9 7 18 15
21 9 4 15 19 15 35 0 17 9 47 20 69 11 22 20 53 20 70 0 25 6 33 35 47 19 9
35 20 35 25 0 4 20 8 45 8 32 0 51 6 65 20 11 11 30 20 42 20 27 0 58 27 58
52 0 17 -11 18 -139 18 -130 0 -139 -1 -144 -20 -4 -14 -14 -20 -35 -20 -17 0
-32 -6 -36 -15 -3 -8 -18 -15 -33 -15 -17 0 -33 -8 -41 -20 -7 -12 -23 -20
-40 -20 -15 0 -36 -7 -46 -15 -28 -22 -238 -21 -260 0 -21 21 -116 21 -116 0
0 -9 -6 -18 -14 -21 -8 -3 -18 -19 -21 -35 -4 -16 -11 -29 -16 -29 -5 0 -14
-11 -19 -25 -5 -14 -14 -25 -20 -25 -5 0 -10 -9 -10 -19 0 -11 -6 -26 -12 -33
-26 -28 -58 -78 -58 -90 0 -8 -9 -21 -20 -31 -11 -9 -20 -26 -20 -37 0 -11 -6
-23 -14 -26 -8 -3 -16 -18 -20 -35 -3 -17 -12 -29 -21 -29 -9 0 -15 -9 -15
-25 0 -14 -9 -33 -20 -42 -11 -10 -20 -28 -20 -41 0 -12 -6 -25 -14 -28 -8 -3
-17 -16 -20 -30 -4 -13 -11 -24 -16 -24 -16 0 -12 47 5 64 8 8 15 24 15 35 0
12 9 30 20 41 11 11 20 27 20 35 0 9 7 18 15 21 8 4 15 17 15 30 0 13 9 28 20
34 11 6 20 20 20 30 0 11 9 29 20 40 11 11 20 29 20 39 0 10 6 21 14 24 8 3
17 19 21 36 4 17 13 31 21 31 8 0 14 9 14 20 0 11 7 20 15 20 8 0 15 9 15 19
0 30 11 51 26 51 8 0 14 9 14 20 0 11 7 20 15 20 8 0 15 4 15 10 0 5 10 21 22
35 28 33 105 36 133 5 16 -17 31 -20 110 -20 79 0 94 3 110 20 13 14 31 20 62
20 30 0 45 5 49 15 4 9 19 15 39 15 24 0 34 5 38 20 4 15 14 20 41 20 25 0 36
5 36 14 0 10 16 17 46 22 26 4 59 13 73 20 32 17 36 17 69 0z m-1748 -111 c0
-8 -7 -15 -15 -15 -8 0 -15 7 -15 15 0 8 7 15 15 15 8 0 15 -7 15 -15z m-36
-52 c-4 -16 -13 -33 -20 -39 -8 -6 -14 -18 -14 -26 0 -8 -9 -25 -20 -38 -11
-13 -20 -34 -20 -47 0 -14 -6 -23 -15 -23 -10 0 -15 -11 -15 -35 0 -24 -6 -37
-20 -45 -12 -6 -20 -21 -20 -36 0 -13 -7 -27 -15 -30 -8 -3 -17 -22 -21 -42
-9 -48 -15 -57 -25 -41 -15 23 -10 60 11 86 11 14 20 34 20 45 0 10 7 21 15
24 9 4 15 19 15 36 0 21 6 31 20 35 14 4 20 14 20 32 0 15 9 34 20 44 11 9 20
26 20 37 0 11 6 23 14 26 8 3 18 19 21 35 4 16 13 29 21 29 11 0 13 -7 8 -27z
m-214 -457 c0 -19 -3 -41 -6 -50 -11 -28 -24 -6 -24 40 0 32 4 44 15 44 10 0
15 -10 15 -34z m740 -30 c0 -19 -6 -36 -14 -39 -7 -3 -16 -19 -19 -36 -4 -18
-13 -31 -22 -31 -11 0 -15 -10 -15 -35 0 -22 -6 -38 -15 -41 -8 -4 -15 -18
-15 -33 0 -41 -11 -71 -26 -71 -9 0 -14 -12 -14 -35 0 -24 -5 -35 -15 -35 -22
0 -19 59 5 95 11 17 20 40 20 53 0 13 6 22 15 22 10 0 15 10 15 33 0 20 8 39
20 50 11 9 20 28 20 41 0 13 7 26 15 30 8 3 15 16 15 29 0 13 3 27 7 30 14 15
23 5 23 -27z m-780 -141 c0 -60 -3 -75 -15 -75 -11 0 -15 12 -15 49 0 47 13
101 25 101 3 0 5 -34 5 -75z m40 -96 c0 -5 -7 -9 -15 -9 -15 0 -20 12 -9 23 8
8 24 -1 24 -14z m66 -34 c4 -8 14 -15 24 -15 10 0 20 -9 23 -20 4 -15 14 -20
36 -20 24 0 31 -4 31 -20 0 -16 7 -20 30 -20 18 0 33 -6 36 -15 4 -9 19 -15
36 -15 21 0 31 -6 35 -20 4 -13 14 -20 29 -20 14 0 27 -7 30 -15 5 -11 21 -15
60 -15 72 0 104 21 104 66 0 24 5 34 15 34 22 0 19 -52 -5 -83 -11 -14 -20
-30 -20 -35 0 -28 -136 -24 -147 4 -3 8 -16 14 -29 14 -14 0 -27 7 -30 15 -3
8 -21 17 -40 21 -19 3 -34 12 -34 20 0 8 -7 14 -15 14 -8 0 -32 9 -52 20 -21
11 -44 20 -51 20 -7 0 -15 7 -18 15 -4 8 -13 15 -20 15 -8 0 -24 9 -36 20 -12
11 -30 20 -40 20 -10 0 -18 7 -18 15 0 10 10 15 30 15 18 0 33 -6 36 -15z"/>
<path d="M5904 7395 c-9 -23 -10 -437 -2 -457 7 -17 29 -18 268 -18 l260 0 0
30 c0 21 -5 30 -16 30 -9 0 -18 9 -21 20 -3 11 -12 20 -19 20 -8 0 -14 7 -14
15 0 8 -5 15 -11 15 -12 0 -109 77 -122 97 -4 7 -14 13 -21 13 -8 0 -16 9 -19
20 -3 11 -12 20 -21 20 -9 0 -16 7 -16 15 0 8 -5 15 -10 15 -6 0 -31 20 -55
45 -25 24 -45 49 -45 55 0 5 -9 10 -20 10 -11 0 -20 6 -20 14 0 8 -13 17 -29
21 -16 3 -32 13 -35 21 -7 18 -25 18 -32 -1z"/>
</g>
</svg>
