<svg xmlns="http://www.w3.org/2000/svg" width="28" height="28" viewBox="0 0 28 28"><defs><style>.a,.b{fill:#fff;}.a{opacity:0;}</style></defs><g transform="translate(-4261 -1162)"><rect class="a" width="28" height="28" transform="translate(4261 1162)"/><g transform="translate(4258.52 1147)"><g transform="translate(5 21)"><path class="b" d="M22.2,973.369a.794.794,0,0,0-.125.033l-16.5,4.907a.8.8,0,0,0-.574.765v3.493a.8.8,0,0,0,.574.765l2.287.682,1.156,4.2a.8.8,0,0,0,.773.591h2.661a.8.8,0,0,0,.773-1.006l-.657-2.387,9.506,2.828a.8.8,0,0,0,1.023-.765V974.167a.8.8,0,0,0-.9-.8Zm5.613,1.589a.8.8,0,0,0-.349.125l-2.129,1.331a.8.8,0,1,0,.848,1.356l2.129-1.331a.8.8,0,0,0-.5-1.48Zm-6.312.283V986.4L6.6,981.977v-2.312Zm4.175,4.782a.8.8,0,0,0,.083,1.6h2.4a.8.8,0,0,0,0-1.6h-2.4a.822.822,0,0,0-.083,0Zm.05,3.718a.8.8,0,0,0-.391,1.48l2.129,1.331a.8.8,0,0,0,.848-1.356l-2.129-1.331a.8.8,0,0,0-.457-.125Zm-16.05.815,1.081.316.649,2.337h-1Z" transform="translate(-5 -973.363)"/></g></g></g></svg>