<svg xmlns="http://www.w3.org/2000/svg" width="28" height="28" viewBox="0 0 28 28"><defs><style>.a,.b{fill:#fff;}.a{opacity:0;}.b{stroke:#fff;stroke-width:0.5px;}</style></defs><g transform="translate(-4309 -1162)"><rect class="a" width="28" height="28" transform="translate(4309 1162)"/><g transform="translate(4310 1163)"><g transform="translate(2 2)"><path class="b" d="M22.722,3.535h-2.3V2.767a.767.767,0,1,0-1.535,0v.767H6.6V2.767a.767.767,0,1,0-1.535,0v.767h-2.3A.767.767,0,0,0,2,4.3V18.117a.767.767,0,0,0,.767.767h2.3v3.837a.767.767,0,0,0,1.535,0v-.767h12.28v.767a.767.767,0,0,0,1.535,0V18.884h2.3a.767.767,0,0,0,.767-.767V4.3A.767.767,0,0,0,22.722,3.535ZM18.884,20.419H6.6V18.884h12.28Zm3.07-3.07H3.535V5.07H21.954Z" transform="translate(-2 -2)"/></g></g></g></svg>