<svg xmlns="http://www.w3.org/2000/svg" width="61" height="62" viewBox="0 0 61 62"><defs><style>.a{fill:#f53c56;}.b{fill:none;stroke:#fff;stroke-linecap:round;stroke-linejoin:round;stroke-width:2px;}</style></defs><g transform="translate(-1007 -198)"><ellipse class="a" cx="30.5" cy="31" rx="30.5" ry="31" transform="translate(1007 198)"/><path class="b" d="M15.715,7.581V28.811a2.8,2.8,0,0,1-5.431.941L6.872,19.978m19.969-1.084a4.768,4.768,0,1,0,0-9.536M6.872,19.979A6.359,6.359,0,0,1,9.357,7.768h2.912c6.516,0,12.119-1.961,14.571-4.768V25.251c-2.452-2.807-8.053-4.768-14.571-4.768H9.357a6.338,6.338,0,0,1-2.486-.5Z" transform="translate(1020.5 211.5)"/></g></svg>