<svg xmlns="http://www.w3.org/2000/svg" width="62" height="62" viewBox="0 0 62 62"><defs><style>.a{fill:#11cdef;}.b{fill:none;stroke:#fff;stroke-linecap:round;stroke-linejoin:round;stroke-width:2px;}</style></defs><g transform="translate(-1733 -198)"><circle class="a" cx="31" cy="31" r="31" transform="translate(1733 198)"/><path class="b" d="M18.992,11.885c-2.944,0-5.331,1.59-5.331,3.554s2.386,3.554,5.331,3.554,5.331,1.59,5.331,3.554S21.937,26.1,18.992,26.1m0-14.215a6.174,6.174,0,0,1,4.618,1.777m-4.618-1.777V10.108m0,1.777V26.1m0,0v1.777m0-1.777a6.174,6.174,0,0,1-4.618-1.777m20.61-5.331A15.992,15.992,0,1,1,18.992,3,15.992,15.992,0,0,1,34.984,18.992Z" transform="translate(1745.5 210.5)"/></g></svg>