<svg xmlns="http://www.w3.org/2000/svg" width="62" height="62" viewBox="0 0 62 62"><defs><style>.a{fill:#7764e4;}.b{fill:none;stroke:#fff;stroke-linecap:round;stroke-linejoin:round;stroke-width:2px;}</style></defs><g transform="translate(-1368 -198)"><circle class="a" cx="31" cy="31" r="31" transform="translate(1368 198)"/><path class="b" d="M25.312,10.375H28.5a3.187,3.187,0,0,1,3.187,3.187v9.562A3.187,3.187,0,0,1,28.5,26.312H25.312v6.375l-6.375-6.375H12.562a3.178,3.178,0,0,1-2.254-.934m0,0,5.441-5.441h6.375a3.187,3.187,0,0,0,3.187-3.187V7.187A3.187,3.187,0,0,0,22.125,4H6.187A3.187,3.187,0,0,0,3,7.187V16.75a3.187,3.187,0,0,0,3.187,3.187H9.375v6.375Z" transform="translate(1381.5 210.5)"/></g></svg>