<svg xmlns="http://www.w3.org/2000/svg" width="28" height="28" viewBox="0 0 28 28"><defs><style>.a{fill:#fff;}.b{fill:#455571;}</style></defs><g transform="translate(-76 -670)"><rect class="a" width="28" height="28" transform="translate(76 670)"/><g transform="translate(-4082.34 -578)"><g transform="translate(4161.34 1253)"><path class="b" d="M31.25,13.29H11.09a.75.75,0,0,0-.75.75v3.425a.75.75,0,0,0,.75.75H31.25a.75.75,0,0,0,.75-.75V14.04a.75.75,0,0,0-.75-.75Zm-.75,3.425H11.84V14.79H30.5Zm.75,3.47H11.09a.75.75,0,0,0-.75.75v3.42a.75.75,0,0,0,.75.75H31.25a.75.75,0,0,0,.75-.75v-3.42a.75.75,0,0,0-.75-.75ZM30.5,23.6H11.84v-1.92H30.5Zm.75,3.47H11.09a.75.75,0,0,0-.75.75V31.25a.75.75,0,0,0,.75.75H31.25a.75.75,0,0,0,.75-.75V27.825a.75.75,0,0,0-.75-.75ZM30.5,30.5H11.84V28.575H30.5Z" transform="translate(-10.34 -13.29)"/></g></g></g></svg>