<svg xmlns="http://www.w3.org/2000/svg" width="28" height="28" viewBox="0 0 28 28"><defs><style>.a{fill:none;}.b{fill:#fff;}</style></defs><g transform="translate(-4453 -1162)"><path class="a" d="M0,0H28V28H0Z" transform="translate(4453 1162)"/><g transform="translate(4422.3 1141.1)"><g transform="translate(32.7 25.9)"><path class="b" d="M53.234,25.9H36.012A3.322,3.322,0,0,0,32.7,29.212V40.289A3.322,3.322,0,0,0,36.012,43.6H53.234a3.322,3.322,0,0,0,3.312-3.312V29.249A3.354,3.354,0,0,0,53.234,25.9ZM36.012,28.255H53.234a.974.974,0,0,1,.957.957v.81l-9.163,4.526a.866.866,0,0,1-.846,0l-9.163-4.49v-.81A.989.989,0,0,1,36.012,28.255ZM53.234,41.282H36.012a.974.974,0,0,1-.957-.957V32.671l8.1,3.974a3.32,3.32,0,0,0,1.472.331,3.437,3.437,0,0,0,1.472-.331l8.1-3.974v7.618A.982.982,0,0,1,53.234,41.282Z" transform="translate(-32.7 -25.9)"/></g></g></g></svg>