<svg xmlns="http://www.w3.org/2000/svg" width="28" height="28" viewBox="0 0 28 28"><defs><style>.a{fill:#fff;}.b{fill:#455571;stroke:#455571;stroke-width:0.5px;}</style></defs><g transform="translate(-84 -123)"><rect class="a" width="28" height="28" transform="translate(84 123)"/><g transform="translate(86.549 125.549)"><path class="b" d="M9.058,15.329a.658.658,0,0,1,.7.7h0V21.6a.658.658,0,0,1-.7.7H.7a.658.658,0,0,1-.7-.7H0V16.026a.658.658,0,0,1,.7-.7H9.058ZM21.6,11.148a.658.658,0,0,1,.7.7h0V21.6a.658.658,0,0,1-.7.7H13.239a.658.658,0,0,1-.7-.7h0V11.845a.658.658,0,0,1,.7-.7H21.6ZM8.361,16.723H1.394V20.9H8.361ZM20.9,12.542H13.936V20.9H20.9ZM9.058,0a.658.658,0,0,1,.7.7h0V11.845a.658.658,0,0,1-.7.7H.7a.658.658,0,0,1-.7-.7H0V.7A.658.658,0,0,1,.7,0H9.058Zm-.7,1.394H1.394v9.755H8.361ZM21.6,0a.658.658,0,0,1,.7.7h0V7.665a.658.658,0,0,1-.7.7H13.239a.658.658,0,0,1-.7-.7h0V.7a.658.658,0,0,1,.7-.7H21.6Zm-.7,1.394H13.936V6.968H20.9Z"/></g></g></svg>