<svg xmlns="http://www.w3.org/2000/svg" width="28" height="28" viewBox="0 0 28 28"><defs><style>.a{fill:#fff;}.b{fill:#455571;}</style></defs><g transform="translate(-220 -670)"><rect class="a" width="28" height="28" transform="translate(220 670)"/><g transform="translate(199.5 649)"><g transform="translate(23.5 23)"><path class="b" d="M32.945,42.294a1.93,1.93,0,0,0,3.835,0Zm5.985,0a4.073,4.073,0,0,1-8.135,0H25.43a1.929,1.929,0,0,1-1.93-1.929v-.43a3.218,3.218,0,0,1,2.573-3.15v-5a8.79,8.79,0,0,1,17.579,0v5a3.214,3.214,0,0,1,2.573,3.15v.43a1.927,1.927,0,0,1-1.93,1.929Zm5.151-2.359A1.071,1.071,0,0,0,43,38.864a1.5,1.5,0,0,1-1.5-1.5V31.789a6.646,6.646,0,0,0-13.292,0v5.577a1.5,1.5,0,0,1-1.5,1.5,1.074,1.074,0,0,0-1.076,1.071v.215H44.081Z" transform="translate(-23.5 -23)"/></g></g></g></svg>