<svg xmlns="http://www.w3.org/2000/svg" width="28" height="28" viewBox="0 0 28 28"><defs><style>.a{fill:#fff;}.b{fill:#455571;stroke:#455571;stroke-width:0.5px;}</style></defs><g transform="translate(-4405 -1162)"><rect class="a" width="28" height="28" transform="translate(4405 1162)"/><g transform="translate(4400.995 1158.896)"><path class="b" d="M18.5,7.1A10.494,10.494,0,1,0,28.992,17.6,10.5,10.5,0,0,0,18.5,7.1Zm0,19.772A9.278,9.278,0,1,1,27.777,17.6,9.287,9.287,0,0,1,18.5,26.876Zm2.811-8.662a3.875,3.875,0,0,0-.917-.682,11.418,11.418,0,0,0-1.5-.649,3.879,3.879,0,0,1-1.353-.742,1.391,1.391,0,0,1-.4-1.04,1.472,1.472,0,0,1,.4-1.111,1.547,1.547,0,0,1,1.119-.388,1.374,1.374,0,0,1,1.145.541,2.355,2.355,0,0,1,.421,1.48h1.8a3.768,3.768,0,0,0-.709-2.375,2.953,2.953,0,0,0-2.006-1.1v-1.64H18.126v1.626a3.2,3.2,0,0,0-2.043.947,2.845,2.845,0,0,0-.754,2.035,2.971,2.971,0,0,0,1.738,2.76,10.7,10.7,0,0,0,1.461.615,3.518,3.518,0,0,1,1.342.745,1.442,1.442,0,0,1,.4,1.048,1.416,1.416,0,0,1-.443,1.089,1.844,1.844,0,0,1-1.294.41,1.729,1.729,0,0,1-1.339-.515,2.065,2.065,0,0,1-.474-1.453H14.912a3.172,3.172,0,0,0,3.065,3.43v1.447h1.186V23.236a3.4,3.4,0,0,0,2.152-.925,2.784,2.784,0,0,0,.772-2.043,3.1,3.1,0,0,0-.2-1.17A2.7,2.7,0,0,0,21.31,18.213Z" transform="translate(0 0)"/></g></g></svg>