<svg xmlns="http://www.w3.org/2000/svg" width="28" height="28" viewBox="0 0 28 28"><defs><style>.a,.b{fill:#fff;}.a{opacity:0;}.b{fill-rule:evenodd;}</style></defs><g transform="translate(-4261 -1162)"><rect class="a" width="28" height="28" transform="translate(4261 1162)"/><g transform="translate(4165.4 1068.55)"><path class="b" d="M102.055,100.989l1.083-1.082-1.083-1.083-1.083,1.083Zm18.868,11.7v5.549H106.33v-5.549Zm-1.681,1.68H108.011v2.188h11.232Zm-17.188,2.178,1.083-1.083-1.083-1.082-1.083,1.082Zm0,2.373L98.6,115.466l3.456-3.456,3.456,3.456Zm18.868-14.012v5.55H106.33v-5.55Zm-1.681,1.681H108.011v2.188h11.232v-2.188Zm-17.188,2.177,1.083-1.083-1.083-1.082-1.083,1.082Zm0,2.373L98.6,107.684l3.456-3.456,3.456,3.456Zm18.868-14.009v5.549H106.33V97.132Zm-1.681,1.68H108.011V101h11.232Zm-17.188,4.55L98.6,99.906l3.456-3.456,3.456,3.456Z"/></g></g></svg>