<svg xmlns="http://www.w3.org/2000/svg" width="28" height="28" viewBox="0 0 28 28"><defs><style>.a{fill:none;}.b{fill:#fff;stroke:#2196f5;stroke-width:0.5px;}</style></defs><g transform="translate(-28 -670)"><rect class="a" width="28" height="28" transform="translate(28 670)"/><g transform="translate(28 669)"><path class="b" d="M13.34,13.681A5.34,5.34,0,1,0,8,8.34,5.34,5.34,0,0,0,13.34,13.681Zm0-8.01a2.67,2.67,0,1,1-2.67,2.67A2.67,2.67,0,0,1,13.34,5.67Z" transform="translate(1.005)"/><path class="b" d="M9.005,24.016H19.686a4.005,4.005,0,0,0,4.005-4.005V18.675A6.683,6.683,0,0,0,17.016,12h-5.34A6.683,6.683,0,0,0,5,18.675V20.01A4.005,4.005,0,0,0,9.005,24.016ZM7.67,18.675a4.005,4.005,0,0,1,4.005-4.005h5.34a4.005,4.005,0,0,1,4.005,4.005V20.01a1.335,1.335,0,0,1-1.335,1.335H9.005A1.335,1.335,0,0,1,7.67,20.01Z" transform="translate(0 3.016)"/></g></g></svg>